<?xml version="1.0" encoding="utf-8"?>
<!-- Generator: Adobe Illustrator 27.7.0, SVG Export Plug-In . SVG Version: 6.00 Build 0)  -->
<svg version="1.1" id="Ebene_1" xmlns="http://www.w3.org/2000/svg" xmlns:xlink="http://www.w3.org/1999/xlink" x="0px" y="0px"
	 viewBox="0 0 222.6 283.5" style="enable-background:new 0 0 222.6 283.5;" xml:space="preserve">
<style type="text/css">
	.st0{fill:url(#SVGID_1_);}
</style>
<g>
	<path d="M149.2,235h-75c-2.6,0-4.8-2.1-4.8-4.8l0,0c0-2.6,2.1-4.8,4.8-4.8h75c2.6,0,4.8,2.1,4.8,4.8l0,0
		C153.9,232.8,151.8,235,149.2,235z"/>
	<path d="M144.1,252.2H79.5c-2.6,0-4.8-2.1-4.8-4.8l0,0c0-2.6,2.1-4.8,4.8-4.8h64.6c2.6,0,4.8,2.1,4.8,4.8l0,0
		C148.9,250.1,146.8,252.2,144.1,252.2z"/>
	<path d="M128,269.4H95.4c-2.6,0-4.8-2.1-4.8-4.8l0,0c0-2.6,2.1-4.8,4.8-4.8H128c2.6,0,4.8,2.1,4.8,4.8l0,0
		C132.7,267.3,130.6,269.4,128,269.4z"/>
	
		<linearGradient id="SVGID_1_" gradientUnits="userSpaceOnUse" x1="58.209" y1="130.1285" x2="163.0576" y2="130.1285" gradientTransform="matrix(1 0 0 -1 0 283.4646)">
		<stop  offset="0" style="stop-color:#F20500"/>
		<stop  offset="2.272730e-04" style="stop-color:#F20500"/>
		<stop  offset="1" style="stop-color:#D90575"/>
	</linearGradient>
	<path class="st0" d="M162.5,148.8c-0.9-1.6-3.1-2.6-5.6-1.1c-0.7,0.4-1.3,0.8-2,1.2l-1.7,1c-7.7,4.4-14.1,6.7-20.6,7.4
		c-3.1,0.3-6.2,0.3-9.3-0.1c0-0.4-0.2-47.2-0.2-47.2c-0.1-3-0.4-5.9-0.9-8.8c-0.4-2.3-1.1-4.8-2.8-7c-1.5-1.9-3.2-2.5-4.3-2.7
		c-1.1-0.1-2.9,0-4.8,1.5c-1.8,1.4-2.9,3.2-3.8,4.8c-3.2,5.8-5.7,11.8-7.5,16.5c-3.3,8.3-7,15.7-11.3,22.6c-3.4-2-6.7-3.2-10.1-3.8
		c-5.4-0.8-10.1,0.2-14,3.1c-4.9,3.6-6.7,9.9-4.4,15.3c2.4,5.6,8.3,8.7,14.3,7.5c3.1-0.6,6.1-2,9-4.3c2.4-1.9,4.7-4.2,7-7.2
		c1,0.8,2,1.7,3,2.5c7.5,6.7,15,11.1,22.9,13.3v6.2c-0.1,5.1-0.1,9.8,0,14.1v0.1v5.5v0.1v22c0,2.2,1.8,3.9,3.9,3.9
		c2.2,0,3.9-1.8,3.9-3.9v-22c0-0.1,0-0.1,0-0.2c0-12.5-0.1-24.3-0.1-24.3c6.5,0.7,13.1,0,19.5-1.9c6.8-2.1,12.9-5.5,18.1-8.6
		C163.3,152.8,163.5,150.4,162.5,148.8z M76.8,149.4c-1.9,1.4-3.7,2-5.4,2.1l0,0c-1.9,0.1-3.7-0.7-4.8-2.3c-1-1.4-1.1-3.1-0.5-4.7
		c0.8-1.7,2.2-2.9,4.6-3.7c0.9-0.3,1.8-0.4,2.7-0.5c1.7-0.1,3.5,0.2,5.6,0.9c1.4,0.4,2.7,1,4.1,1.8
		C81.5,145.3,79.4,147.6,76.8,149.4z M101.5,147.6c-1.4-1.1-2.7-2.2-4-3.4c-1.2-1-2.3-2-3.5-3c2.9-4.5,5.5-9.4,7.9-14.4
		c1.6-3.3,3-6.7,4.3-10c0.7-1.8,1.4-3.5,2.2-5.3c1.3-3,3-6.9,5.1-10.6c0.2-0.3,0.3-0.5,0.5-0.8c0.2,0.6,0.4,1.2,0.5,2
		c0.7,3.4,0.8,6.8,0.9,10.4v42.8C110.6,153.6,106,151.1,101.5,147.6z"/>
	<path d="M204.2,95.6c-2.5-17.7-9.4-33.6-20.7-47.4c-16-19.4-36.4-30.7-61.4-33.7c-3.3-0.4-6.6-0.5-9.8-0.5c0,0-1.3,0-1.9,0
		c-0.5,0-1.5,0-1.5,0c-2.3,0.1-4.6,0.2-6.8,0.5c-25,3-45.5,14.3-61.4,33.7C29.1,62,22.3,77.9,19.8,95.6c-2.4,16.9-0.5,33.2,5.8,49
		c5.1,12.8,12.6,23.9,22.4,33.5c3.5,3.4,7.1,6.8,9.8,10.9c4.5,6.8,7.1,14.1,7.8,22c0.3,2.4,2.3,4.3,4.7,4.3c0.1,0,0.2,0,0.2,0
		c0.3,0,0.5,0,0.8-0.1c0.2-0.1,0.5-0.1,0.7-0.2c0.2-0.1,0.5-0.2,0.7-0.3s0.4-0.3,0.6-0.4c0.2-0.2,0.4-0.3,0.5-0.5
		c0.2-0.2,0.3-0.4,0.4-0.6c0.1-0.2,0.3-0.4,0.4-0.7c0.1-0.2,0.2-0.5,0.2-0.7s0.1-0.3,0.1-0.5c0-0.1,0-0.5,0-0.6c0-0.3,0-0.6-0.1-0.9
		c0-0.3-0.1-0.6-0.1-0.9c0-0.3-0.1-0.6-0.1-0.9c0-0.3-0.1-0.6-0.1-0.9c0-0.3-0.1-0.6-0.1-0.9c0-0.3-0.1-0.6-0.1-0.9
		c0-0.3-0.1-0.6-0.2-0.9c-0.1-0.3-0.1-0.6-0.2-0.9c-0.1-0.3-0.1-0.6-0.2-0.9c-0.1-0.3-0.1-0.6-0.2-0.9c-0.1-0.3-0.1-0.6-0.2-0.9
		c-0.1-0.3-0.1-0.6-0.2-0.9c-0.1-0.3-0.2-0.6-0.2-0.9c-0.1-0.3-0.2-0.6-0.3-0.9c-0.1-0.3-0.2-0.6-0.3-0.8c-0.1-0.3-0.2-0.6-0.3-0.8
		c-0.1-0.3-0.2-0.6-0.3-0.8c-0.1-0.3-0.2-0.6-0.3-0.8c-0.1-0.3-0.2-0.5-0.3-0.8c-0.1-0.3-0.2-0.5-0.3-0.8c-0.1-0.3-0.2-0.5-0.3-0.8
		c-0.1-0.3-0.2-0.5-0.4-0.8c-0.1-0.3-0.2-0.5-0.4-0.8c-0.1-0.3-0.3-0.5-0.4-0.8s-0.3-0.5-0.4-0.8s-0.3-0.5-0.4-0.8s-0.3-0.5-0.4-0.8
		s-0.3-0.5-0.4-0.8s-0.3-0.5-0.5-0.8s-0.3-0.5-0.5-0.8s-0.3-0.5-0.5-0.8s-0.3-0.5-0.5-0.8c-0.2-0.2-0.3-0.5-0.5-0.7
		s-0.3-0.5-0.5-0.7s-0.4-0.5-0.5-0.7c-0.2-0.2-0.4-0.5-0.6-0.7c-0.2-0.2-0.4-0.5-0.6-0.7c-0.2-0.2-0.4-0.5-0.6-0.7
		c-0.2-0.2-0.4-0.5-0.6-0.7c-0.2-0.2-0.4-0.5-0.6-0.7c-0.2-0.2-0.4-0.5-0.6-0.7c-4.3-4.8-9.3-8.9-13.4-13.9
		c-12.8-15.8-18.7-33.9-19.2-54c-0.2-9.5,1.5-18.8,4.4-27.8c5.3-16.2,15-29.4,28.2-39.9C73.4,31.6,88,25.6,104.4,24.2
		c2.3-0.2,4.6-0.3,6.8-0.3c2.5,0,5.1,0.1,7.7,0.3c16.5,1.4,31,7.4,43.8,17.6c13.2,10.5,22.9,23.7,28.2,39.9c2.9,9,4.7,18.3,4.4,27.8
		c-0.5,20.1-6.4,38.2-19.2,54c-4.1,5-9.1,9.2-13.4,13.9c-0.2,0.2-0.4,0.5-0.6,0.7c-0.2,0.2-0.4,0.5-0.6,0.7
		c-0.2,0.2-0.4,0.5-0.6,0.7c-0.2,0.2-0.4,0.5-0.6,0.7c-0.2,0.2-0.4,0.5-0.6,0.7c-0.2,0.2-0.4,0.5-0.6,0.7c-0.2,0.2-0.4,0.5-0.5,0.7
		c-0.2,0.2-0.4,0.5-0.5,0.7c-0.2,0.2-0.3,0.5-0.5,0.7s-0.3,0.5-0.5,0.7c-0.2,0.3-0.3,0.5-0.5,0.8s-0.3,0.5-0.5,0.8s-0.3,0.5-0.5,0.8
		c-0.1,0.3-0.3,0.5-0.4,0.8c-0.1,0.3-0.3,0.5-0.4,0.8c-0.1,0.3-0.3,0.5-0.4,0.8c-0.1,0.3-0.3,0.5-0.4,0.8c-0.1,0.3-0.3,0.5-0.4,0.8
		c-0.1,0.3-0.3,0.5-0.4,0.8c-0.1,0.3-0.2,0.5-0.4,0.8c-0.1,0.3-0.2,0.5-0.3,0.8s-0.2,0.5-0.3,0.8s-0.2,0.5-0.3,0.8s-0.2,0.6-0.3,0.8
		c-0.1,0.3-0.2,0.6-0.3,0.8c-0.1,0.3-0.2,0.6-0.3,0.8c-0.1,0.3-0.2,0.6-0.3,0.8c-0.1,0.3-0.2,0.6-0.3,0.9c-0.1,0.3-0.2,0.6-0.2,0.9
		c-0.1,0.3-0.2,0.6-0.2,0.9c-0.1,0.3-0.1,0.6-0.2,0.9c-0.1,0.3-0.1,0.6-0.2,0.9c-0.1,0.3-0.1,0.6-0.2,0.9c-0.1,0.3-0.1,0.6-0.2,0.9
		c-0.1,0.3-0.1,0.6-0.2,0.9c0,0.3-0.1,0.6-0.1,0.9c0,0.3-0.1,0.6-0.1,0.9c0,0.3-0.1,0.6-0.1,0.9c0,0.3-0.1,0.6-0.1,0.9
		c0,0.3-0.1,0.6-0.1,0.9c0,0.3-0.1,0.6-0.1,0.9c0,0.1,0,0.5,0,0.6c0,0.2,0.1,0.3,0.1,0.5c0.1,0.2,0.1,0.5,0.2,0.7
		c0.1,0.2,0.2,0.4,0.4,0.7c0.1,0.2,0.3,0.4,0.4,0.6c0.2,0.2,0.3,0.4,0.5,0.5c0.2,0.2,0.4,0.3,0.6,0.4c0.2,0.1,0.4,0.2,0.7,0.3
		c0.2,0.1,0.5,0.2,0.7,0.2c0.3,0.1,0.5,0.1,0.8,0.1c0.1,0,0.2,0,0.2,0c2.5,0,4.5-1.9,4.7-4.3c0.7-7.9,3.3-15.2,7.8-22
		c2.7-4.1,6.3-7.5,9.8-10.9c9.9-9.6,17.4-20.7,22.4-33.5C204.6,128.8,206.5,112.5,204.2,95.6z"/>
</g>
</svg>
