<svg xmlns="http://www.w3.org/2000/svg" xml:space="preserve" id="Ebene_1" x="0" y="0" version="1.1" viewBox="0 0 222.6 283.5">
  <style>
    .st0{fill:#fff}
  </style>
  <path d="M149.2 235h-75a4.8 4.8 0 0 1 0-9.6h75c2.6 0 4.8 2.1 4.8 4.8a5 5 0 0 1-4.8 4.8zM144.1 252.2H79.5a4.8 4.8 0 0 1 0-9.6h64.6c2.6 0 4.8 2.1 4.8 4.8 0 2.7-2.1 4.8-4.8 4.8zM128 269.4H95.4a4.8 4.8 0 0 1 0-9.6H128c2.6 0 4.8 2.1 4.8 4.8a4.9 4.9 0 0 1-4.8 4.8z" class="st0"/>
  <linearGradient id="SVGID_1_" x1="58.1" x2="163.1" y1="153.4" y2="153.4" gradientUnits="userSpaceOnUse">
    <stop offset="0" stop-color="#f20500"/>
    <stop offset="0" stop-color="#f20500"/>
    <stop offset="1" stop-color="#d90575"/>
  </linearGradient>
  <path fill="url(#SVGID_1_)" d="M162.5 148.8c-.9-1.6-3.1-2.6-5.6-1.1l-2 1.2-1.7 1a52.2 52.2 0 0 1-20.6 7.4c-3.1.3-6.2.3-9.3-.1l-.2-47.2a64 64 0 0 0-.9-8.8c-.4-2.3-1.1-4.8-2.8-7a7 7 0 0 0-4.3-2.7c-1.1-.1-2.9 0-4.8 1.5a15.2 15.2 0 0 0-3.8 4.8c-3.2 5.8-5.7 11.8-7.5 16.5-3.3 8.3-7 15.7-11.3 22.6-3.4-2-6.7-3.2-10.1-3.8-5.4-.8-10.1.2-14 3.1a12.8 12.8 0 0 0-4.4 15.3c2.4 5.6 8.3 8.7 14.3 7.5 3.1-.6 6.1-2 9-4.3 2.4-1.9 4.7-4.2 7-7.2l3 2.5c7.5 6.7 15 11.1 22.9 13.3v48a3.9 3.9 0 0 0 7.8 0v-22.2l-.1-24.3c6.5.7 13.1 0 19.5-1.9a84.4 84.4 0 0 0 18.1-8.6c2.6-1.5 2.8-3.9 1.8-5.5zm-85.7.6a10 10 0 0 1-5.4 2.1c-1.9.1-3.7-.7-4.8-2.3a5 5 0 0 1-.5-4.7c.8-1.7 2.2-2.9 4.6-3.7.9-.3 1.8-.4 2.7-.5 1.7-.1 3.5.2 5.6.9 1.4.4 2.7 1 4.1 1.8a25.5 25.5 0 0 1-6.3 6.4zm24.7-1.8a65.2 65.2 0 0 1-4-3.4l-3.5-3a132.6 132.6 0 0 0 12.2-24.4 118.9 118.9 0 0 1 7.3-15.9l.5-.8.5 2c.7 3.4.8 6.8.9 10.4v42.8a49.2 49.2 0 0 1-13.9-7.7z"/>
  <path d="M204.2 95.6a94.5 94.5 0 0 0-20.7-47.4A91 91 0 0 0 112.3 14h-3.4c-2.3.1-4.6.2-6.8.5-25 3-45.5 14.3-61.4 33.7a92.2 92.2 0 0 0-20.9 47.4A96.3 96.3 0 0 0 48 178.1c3.5 3.4 7.1 6.8 9.8 10.9a46.7 46.7 0 0 1 7.8 22 4.8 4.8 0 0 0 4.7 4.3h.2l.8-.1.7-.2.7-.3.6-.4.5-.5.4-.6.4-.7.2-.7.1-.5v-.6l-.1-.9-.1-.9-.1-.9-.1-.9-.1-.9-.1-.9-.2-.9-.2-.9-.2-.9-.2-.9-.2-.9-.2-.9-.2-.9-.3-.9-.3-.8-.3-.8-.3-.8-.3-.8-.3-.8-.3-.8-.3-.8a3 3 0 0 0-.4-.8 3 3 0 0 0-.4-.8l-.4-.8-.4-.8-.4-.8-.4-.8-.4-.8-.5-.8-.5-.8-.5-.8-.5-.8-.5-.7-.5-.7a3 3 0 0 1-.5-.7l-.6-.7-.6-.7-.6-.7-.6-.7-.6-.7-.6-.7c-4.3-4.8-9.3-8.9-13.4-13.9A86.5 86.5 0 0 1 60.6 41.8a79.9 79.9 0 0 1 58.3-17.6c16.5 1.4 31 7.4 43.8 17.6a83.5 83.5 0 0 1 32.6 67.7 86.5 86.5 0 0 1-19.2 54c-4.1 5-9.1 9.2-13.4 13.9l-.6.7-.6.7-.6.7-.6.7-.6.7-.6.7a3 3 0 0 0-.5.7 3 3 0 0 0-.5.7l-.5.7-.5.7-.5.8-.5.8-.5.8-.4.8-.4.8-.4.8-.4.8-.4.8-.4.8a3 3 0 0 1-.4.8l-.3.8-.3.8-.3.8-.3.8-.3.8-.3.8-.3.8-.3.9-.2.9-.2.9-.2.9-.2.9-.2.9-.2.9-.2.9-.1.9-.1.9-.1.9-.1.9-.1.9-.1.9v.6l.1.5.2.7.4.7.4.6.5.5.6.4.7.3.7.2.8.1h.2c2.5 0 4.5-1.9 4.7-4.3.7-7.9 3.3-15.2 7.8-22 2.7-4.1 6.3-7.5 9.8-10.9a93.6 93.6 0 0 0 22.4-33.5c6.9-15.7 8.8-32 6.5-48.9z" class="st0"/>
</svg>
